STARTFONT 2.1
FONT -FontForge-Bitstream Vera Sans-Bold-O-Normal-Sans--16-150-75-75-P-104-ISO10646-1
SIZE 15 75 75
FONTBOUNDINGBOX 26 20 -4 -4
COMMENT "Generated by fontforge, http://fontforge.sourceforge.net"
COMMENT "Copyright (c) 2003 by Bitstream, Inc. All Rights Reserved."
STARTPROPERTIES 41
FOUNDRY "FontForge"
FAMILY_NAME "Bitstream Vera Sans"
WEIGHT_NAME "Bold"
SLANT "O"
SETWIDTH_NAME "Normal"
ADD_STYLE_NAME "Sans"
PIXEL_SIZE 16
POINT_SIZE 150
RESOLUTION_X 75
RESOLUTION_Y 75
SPACING "P"
AVERAGE_WIDTH 104
CHARSET_REGISTRY "ISO10646"
CHARSET_ENCODING "1"
FONTNAME_REGISTRY ""
CHARSET_COLLECTIONS "ISO8859-9 ISO10646-1"
FONT_NAME "BitstreamVeraSans-BoldOblique"
FACE_NAME "Bitstream Vera Sans Bold Oblique"
COPYRIGHT "Copyright (c) 2003 by Bitstream, Inc. All Rights Reserved."
FONT_VERSION "Release 1.10"
FONT_ASCENT 12
FONT_DESCENT 4
UNDERLINE_POSITION -3
UNDERLINE_THICKNESS 3
X_HEIGHT 8
CAP_HEIGHT 11
RAW_ASCENT 759
RAW_DESCENT 240
ITALIC_ANGLE 5056
NORM_SPACE 6
RELATIVE_WEIGHT 70
RELATIVE_SETWIDTH 50
SUPERSCRIPT_X 0
SUPERSCRIPT_Y 4
SUPERSCRIPT_SIZE 9
SUBSCRIPT_X 0
SUBSCRIPT_Y -3
SUBSCRIPT_SIZE 9
FIGURE_WIDTH 11
AVG_LOWERCASE_WIDTH 101
AVG_UPPERCASE_WIDTH 119
ENDPROPERTIES
CHARS 267
STARTCHAR space
ENCODING 32
SWIDTH 348 0
DWIDTH 6 0
BBX 1 1 0 0
BITMAP
00
ENDCHAR
STARTCHAR exclam
ENCODING 33
SWIDTH 456 0
DWIDTH 7 0
BBX 4 12 1 0
BITMAP
30
30
70
60
60
60
60
40
00
C0
C0
C0
ENDCHAR
STARTCHAR quotedbl
ENCODING 34
SWIDTH 520 0
DWIDTH 8 0
BBX 6 4 1 8
BITMAP
CC
CC
CC
CC
ENDCHAR
STARTCHAR numbersign
ENCODING 35
SWIDTH 695 0
DWIDTH 11 0
BBX 11 12 0 0
BITMAP
0C80
0980
0980
7FE0
7FE0
1900
1300
FFC0
FFC0
3200
2600
2600
ENDCHAR
STARTCHAR dollar
ENCODING 36
SWIDTH 695 0
DWIDTH 11 0
BBX 10 14 0 -2
BITMAP
0100
0100
0FC0
1FC0
3240
3200
3F00
1FC0
04C0
4CC0
FF80
7F00
0800
0800
ENDCHAR
STARTCHAR percent
ENCODING 37
SWIDTH 1001 0
DWIDTH 16 0
BBX 14 12 1 0
BITMAP
3830
4C20
CC60
CCC0
C980
7300
0338
064C
0CCC
18CC
10C8
3070
ENDCHAR
STARTCHAR ampersand
ENCODING 38
SWIDTH 872 0
DWIDTH 14 0
BBX 13 12 0 0
BITMAP
07C0
0FE0
1840
1800
1800
7C18
6E30
C770
C3E0
E3C0
7FC0
3E60
ENDCHAR
STARTCHAR quotesingle
ENCODING 39
SWIDTH 306 0
DWIDTH 5 0
BBX 2 4 1 8
BITMAP
C0
C0
C0
C0
ENDCHAR
STARTCHAR parenleft
ENCODING 40
SWIDTH 457 0
DWIDTH 7 0
BBX 6 14 1 -2
BITMAP
1C
38
30
70
60
60
C0
C0
C0
C0
C0
C0
C0
60
ENDCHAR
STARTCHAR parenright
ENCODING 41
SWIDTH 457 0
DWIDTH 7 0
BBX 6 14 -1 -2
BITMAP
18
0C
0C
0C
0C
0C
0C
0C
18
18
38
30
70
E0
ENDCHAR
STARTCHAR asterisk
ENCODING 42
SWIDTH 522 0
DWIDTH 8 0
BBX 7 7 1 5
BITMAP
10
92
7C
38
7C
92
10
ENDCHAR
STARTCHAR plus
ENCODING 43
SWIDTH 837 0
DWIDTH 13 0
BBX 10 10 2 0
BITMAP
0C00
0C00
0C00
0C00
FFC0
FFC0
0C00
0C00
0C00
0C00
ENDCHAR
STARTCHAR comma
ENCODING 44
SWIDTH 379 0
DWIDTH 6 0
BBX 3 5 0 -2
BITMAP
60
60
60
40
C0
ENDCHAR
STARTCHAR hyphen
ENCODING 45
SWIDTH 415 0
DWIDTH 7 0
BBX 5 2 0 4
BITMAP
F8
F8
ENDCHAR
STARTCHAR period
ENCODING 46
SWIDTH 379 0
DWIDTH 6 0
BBX 2 3 1 0
BITMAP
C0
C0
C0
ENDCHAR
STARTCHAR slash
ENCODING 47
SWIDTH 365 0
DWIDTH 6 0
BBX 9 13 -2 -1
BITMAP
0180
0300
0200
0600
0400
0C00
1800
1800
3000
3000
6000
6000
C000
ENDCHAR
STARTCHAR zero
ENCODING 48
SWIDTH 695 0
DWIDTH 11 0
BBX 9 12 1 0
BITMAP
1E00
3F00
7180
6180
E180
C180
C180
C380
C300
C700
7E00
3C00
ENDCHAR
STARTCHAR one
ENCODING 49
SWIDTH 695 0
DWIDTH 11 0
BBX 7 12 1 0
BITMAP
1C
3C
2C
0C
0C
0C
18
18
18
18
FE
FE
ENDCHAR
STARTCHAR two
ENCODING 50
SWIDTH 695 0
DWIDTH 11 0
BBX 10 12 0 0
BITMAP
0F80
3FC0
20C0
00C0
00C0
01C0
0780
0E00
3C00
7000
FF80
FF80
ENDCHAR
STARTCHAR three
ENCODING 51
SWIDTH 695 0
DWIDTH 11 0
BBX 10 12 0 0
BITMAP
0F80
1FC0
20C0
00C0
1F80
1F80
0380
0180
0180
8380
FF00
7C00
ENDCHAR
STARTCHAR four
ENCODING 52
SWIDTH 695 0
DWIDTH 11 0
BBX 10 12 0 0
BITMAP
03C0
07C0
0EC0
0D80
1980
3180
6180
E180
FFC0
FFC0
0300
0300
ENDCHAR
STARTCHAR five
ENCODING 53
SWIDTH 695 0
DWIDTH 11 0
BBX 10 12 0 0
BITMAP
1FC0
1FC0
1800
3000
3F80
3FC0
21C0
00C0
00C0
C180
FF80
7E00
ENDCHAR
STARTCHAR six
ENCODING 54
SWIDTH 695 0
DWIDTH 11 0
BBX 9 12 1 0
BITMAP
0F80
3F80
3080
6000
7E00
FF80
E180
C180
C180
C300
7F00
3C00
ENDCHAR
STARTCHAR seven
ENCODING 55
SWIDTH 695 0
DWIDTH 11 0
BBX 10 12 1 0
BITMAP
7FC0
7FC0
0180
0300
0700
0600
0C00
1C00
3800
3000
7000
E000
ENDCHAR
STARTCHAR eight
ENCODING 56
SWIDTH 695 0
DWIDTH 11 0
BBX 10 12 1 0
BITMAP
1F80
7FC0
60C0
60C0
3F80
7F80
6180
C180
C180
C380
FF00
3E00
ENDCHAR
STARTCHAR nine
ENCODING 57
SWIDTH 695 0
DWIDTH 11 0
BBX 9 12 1 0
BITMAP
1E00
7F00
6180
C180
C180
C380
FF80
3F80
0300
8700
FE00
7C00
ENDCHAR
STARTCHAR colon
ENCODING 58
SWIDTH 399 0
DWIDTH 6 0
BBX 4 9 1 0
BITMAP
30
30
30
00
00
00
C0
C0
C0
ENDCHAR
STARTCHAR semicolon
ENCODING 59
SWIDTH 399 0
DWIDTH 6 0
BBX 4 11 0 -2
BITMAP
30
30
30
00
00
00
60
60
60
40
C0
ENDCHAR
STARTCHAR less
ENCODING 60
SWIDTH 837 0
DWIDTH 13 0
BBX 10 9 2 1
BITMAP
0040
03C0
1F00
F800
C000
F800
1F00
03C0
0040
ENDCHAR
STARTCHAR equal
ENCODING 61
SWIDTH 837 0
DWIDTH 13 0
BBX 10 6 2 2
BITMAP
FFC0
FFC0
0000
0000
FFC0
FFC0
ENDCHAR
STARTCHAR greater
ENCODING 62
SWIDTH 837 0
DWIDTH 13 0
BBX 10 9 2 1
BITMAP
8000
F000
3E00
07C0
00C0
07C0
3E00
F000
8000
ENDCHAR
STARTCHAR question
ENCODING 63
SWIDTH 580 0
DWIDTH 9 0
BBX 7 12 2 0
BITMAP
3C
7E
86
06
0C
18
70
60
00
60
C0
C0
ENDCHAR
STARTCHAR at
ENCODING 64
SWIDTH 1000 0
DWIDTH 16 0
BBX 14 14 1 -2
BITMAP
07E0
1830
3008
67E4
4CE4
88E4
9864
98C4
98C8
99D0
CFE0
4000
30C0
0F80
ENDCHAR
STARTCHAR A
ENCODING 65
SWIDTH 773 0
DWIDTH 12 0
BBX 12 12 -1 0
BITMAP
03C0
03C0
06C0
0660
0C60
0C60
1860
3860
3FE0
7FF0
6030
E030
ENDCHAR
STARTCHAR B
ENCODING 66
SWIDTH 762 0
DWIDTH 12 0
BBX 11 12 0 0
BITMAP
3FC0
3FE0
3060
6060
60E0
7FC0
7FC0
60C0
60C0
C1C0
FF80
FF00
ENDCHAR
STARTCHAR C
ENCODING 67
SWIDTH 733 0
DWIDTH 12 0
BBX 10 12 0 0
BITMAP
0F80
3FC0
3080
6000
E000
C000
C000
C000
C000
E100
7F00
3E00
ENDCHAR
STARTCHAR D
ENCODING 68
SWIDTH 830 0
DWIDTH 13 0
BBX 12 12 0 0
BITMAP
3FC0
3FE0
3070
6030
6030
6030
6030
6070
6060
C1C0
FF80
FF00
ENDCHAR
STARTCHAR E
ENCODING 69
SWIDTH 683 0
DWIDTH 11 0
BBX 10 12 0 0
BITMAP
3FC0
3FC0
3000
6000
6000
7F80
7F80
6000
6000
C000
FF00
FF00
ENDCHAR
STARTCHAR F
ENCODING 70
SWIDTH 683 0
DWIDTH 11 0
BBX 10 12 0 0
BITMAP
3FC0
3FC0
3000
6000
6000
7F80
7F80
6000
6000
C000
C000
C000
ENDCHAR
STARTCHAR G
ENCODING 71
SWIDTH 820 0
DWIDTH 13 0
BBX 12 12 0 0
BITMAP
07E0
1FF0
3830
6000
6000
C000
C3F0
C3F0
C060
E060
7FE0
1F80
ENDCHAR
STARTCHAR H
ENCODING 72
SWIDTH 836 0
DWIDTH 13 0
BBX 13 12 0 0
BITMAP
3018
3018
3018
6030
6030
7FF0
7FF0
6030
6030
C060
C060
C060
ENDCHAR
STARTCHAR I
ENCODING 73
SWIDTH 372 0
DWIDTH 6 0
BBX 4 12 0 0
BITMAP
30
30
30
60
60
60
60
60
60
C0
C0
C0
ENDCHAR
STARTCHAR J
ENCODING 74
SWIDTH 372 0
DWIDTH 6 0
BBX 8 15 -3 -3
BITMAP
03
03
03
06
06
06
06
06
0C
0C
0C
0C
18
F8
E0
ENDCHAR
STARTCHAR K
ENCODING 75
SWIDTH 774 0
DWIDTH 12 0
BBX 11 12 0 0
BITMAP
3060
30C0
3180
6300
6600
6C00
7800
6C00
6600
C300
C180
C0C0
ENDCHAR
STARTCHAR L
ENCODING 76
SWIDTH 637 0
DWIDTH 10 0
BBX 8 12 0 0
BITMAP
30
30
30
60
60
60
60
60
60
C0
FF
FF
ENDCHAR
STARTCHAR M
ENCODING 77
SWIDTH 995 0
DWIDTH 16 0
BBX 15 12 0 0
BITMAP
3C1E
3C1E
3C36
6E7C
666C
66CC
67CC
678C
630C
C318
C018
C018
ENDCHAR
STARTCHAR N
ENCODING 78
SWIDTH 836 0
DWIDTH 13 0
BBX 13 12 0 0
BITMAP
3C18
3E18
3618
6630
6730
6330
63B0
63B0
61B0
C1E0
C1E0
C0E0
ENDCHAR
STARTCHAR O
ENCODING 79
SWIDTH 850 0
DWIDTH 14 0
BBX 12 12 1 0
BITMAP
0F80
1FE0
3870
6030
E030
C030
C030
C070
C060
E1C0
7F80
1F00
ENDCHAR
STARTCHAR P
ENCODING 80
SWIDTH 732 0
DWIDTH 12 0
BBX 11 12 0 0
BITMAP
3FC0
3FE0
3060
6060
6060
60E0
7FC0
7F80
6000
C000
C000
C000
ENDCHAR
STARTCHAR Q
ENCODING 81
SWIDTH 850 0
DWIDTH 14 0
BBX 12 14 1 -2
BITMAP
0F80
1FE0
3870
6030
E030
C030
C030
C060
C060
E1C0
7F80
3E00
0700
0380
ENDCHAR
STARTCHAR R
ENCODING 82
SWIDTH 770 0
DWIDTH 12 0
BBX 11 12 0 0
BITMAP
3FC0
3FE0
3060
6060
60E0
7FC0
7FC0
60C0
60C0
C060
C060
C060
ENDCHAR
STARTCHAR S
ENCODING 83
SWIDTH 720 0
DWIDTH 12 0
BBX 10 12 1 0
BITMAP
1F80
3FC0
6080
6000
6000
7E00
3F80
0380
0180
4380
FF00
FE00
ENDCHAR
STARTCHAR T
ENCODING 84
SWIDTH 682 0
DWIDTH 11 0
BBX 11 12 1 0
BITMAP
FFE0
FFE0
0C00
0C00
1C00
1800
1800
1800
1800
3800
3000
3000
ENDCHAR
STARTCHAR U
ENCODING 85
SWIDTH 812 0
DWIDTH 13 0
BBX 11 12 1 0
BITMAP
6060
6060
6060
6060
6060
E060
C0C0
C0C0
C0C0
E180
FF80
3E00
ENDCHAR
STARTCHAR V
ENCODING 86
SWIDTH 773 0
DWIDTH 12 0
BBX 12 12 1 0
BITMAP
C070
C060
C0E0
60C0
61C0
6180
6300
6300
6600
3600
3C00
3C00
ENDCHAR
STARTCHAR W
ENCODING 87
SWIDTH 1103 0
DWIDTH 18 0
BBX 17 12 2 0
BITMAP
C1C180
C3C300
C3C300
C7C600
C6C600
C6CE00
CCCC00
CCCC00
D8D800
D8D800
F8F000
F0F000
ENDCHAR
STARTCHAR X
ENCODING 88
SWIDTH 770 0
DWIDTH 12 0
BBX 13 12 -1 0
BITMAP
1838
1C70
0C60
0CC0
0780
0780
0780
0FC0
1CC0
38C0
7060
E060
ENDCHAR
STARTCHAR Y
ENCODING 89
SWIDTH 724 0
DWIDTH 12 0
BBX 11 12 1 0
BITMAP
C060
60C0
61C0
7380
3700
3600
1C00
1C00
1800
3800
3000
3000
ENDCHAR
STARTCHAR Z
ENCODING 90
SWIDTH 725 0
DWIDTH 12 0
BBX 12 12 0 0
BITMAP
3FF0
3FF0
00E0
01C0
0380
0700
0E00
1C00
3800
7000
FFC0
FFC0
ENDCHAR
STARTCHAR bracketleft
ENCODING 91
SWIDTH 457 0
DWIDTH 7 0
BBX 8 14 0 -2
BITMAP
1F
1F
38
30
30
30
30
60
60
60
60
60
F8
F8
ENDCHAR
STARTCHAR backslash
ENCODING 92
SWIDTH 365 0
DWIDTH 6 0
BBX 4 13 1 -1
BITMAP
C0
C0
C0
60
60
60
60
60
60
60
20
30
30
ENDCHAR
STARTCHAR bracketright
ENCODING 93
SWIDTH 457 0
DWIDTH 7 0
BBX 8 14 0 -2
BITMAP
1F
1F
06
06
06
06
06
0C
0C
0C
0C
1C
F8
F8
ENDCHAR
STARTCHAR asciicircum
ENCODING 94
SWIDTH 837 0
DWIDTH 13 0
BBX 8 4 3 8
BITMAP
18
3C
66
C3
ENDCHAR
STARTCHAR underscore
ENCODING 95
SWIDTH 500 0
DWIDTH 8 0
BBX 8 2 0 -4
BITMAP
FF
FF
ENDCHAR
STARTCHAR grave
ENCODING 96
SWIDTH 500 0
DWIDTH 8 0
BBX 4 3 2 10
BITMAP
E0
60
30
ENDCHAR
STARTCHAR a
ENCODING 97
SWIDTH 674 0
DWIDTH 11 0
BBX 10 9 0 0
BITMAP
3F80
3FC0
00C0
3FC0
7FC0
C180
C380
FF80
7980
ENDCHAR
STARTCHAR b
ENCODING 98
SWIDTH 715 0
DWIDTH 11 0
BBX 10 12 0 0
BITMAP
3000
3000
3000
6780
7FC0
70C0
60C0
60C0
60C0
E180
FF00
DE00
ENDCHAR
STARTCHAR c
ENCODING 99
SWIDTH 592 0
DWIDTH 9 0
BBX 9 9 0 0
BITMAP
1F00
3F80
7080
C000
C000
C000
E200
7E00
3C00
ENDCHAR
STARTCHAR d
ENCODING 100
SWIDTH 715 0
DWIDTH 11 0
BBX 11 12 0 0
BITMAP
0060
0060
0060
1EC0
3FC0
61C0
C0C0
C0C0
C1C0
C380
FF80
7D80
ENDCHAR
STARTCHAR e
ENCODING 101
SWIDTH 678 0
DWIDTH 11 0
BBX 10 9 0 0
BITMAP
1F00
3FC0
60C0
FFC0
FFC0
C000
E080
7F80
3F00
ENDCHAR
STARTCHAR f
ENCODING 102
SWIDTH 435 0
DWIDTH 7 0
BBX 8 12 1 0
BITMAP
0F
1F
30
FC
FC
70
60
60
60
60
C0
C0
ENDCHAR
STARTCHAR g
ENCODING 103
SWIDTH 715 0
DWIDTH 11 0
BBX 10 12 0 -3
BITMAP
1EC0
7FC0
6180
C180
C180
C380
C780
FF00
7B00
8700
FE00
7C00
ENDCHAR
STARTCHAR h
ENCODING 104
SWIDTH 711 0
DWIDTH 11 0
BBX 10 12 0 0
BITMAP
3000
3000
3000
6F80
7FC0
70C0
60C0
60C0
60C0
C180
C180
C180
ENDCHAR
STARTCHAR i
ENCODING 105
SWIDTH 342 0
DWIDTH 5 0
BBX 4 12 0 0
BITMAP
30
30
00
30
30
60
60
60
60
60
C0
C0
ENDCHAR
STARTCHAR j
ENCODING 106
SWIDTH 342 0
DWIDTH 5 0
BBX 7 15 -2 -3
BITMAP
06
06
00
0C
0C
0C
18
18
18
18
18
30
30
F0
E0
ENDCHAR
STARTCHAR k
ENCODING 107
SWIDTH 665 0
DWIDTH 11 0
BBX 10 12 0 0
BITMAP
3000
3000
3000
61C0
6380
6700
6E00
7C00
6E00
E700
C380
C1C0
ENDCHAR
STARTCHAR l
ENCODING 108
SWIDTH 342 0
DWIDTH 5 0
BBX 4 12 0 0
BITMAP
30
30
30
60
60
60
60
60
60
C0
C0
C0
ENDCHAR
STARTCHAR m
ENCODING 109
SWIDTH 1041 0
DWIDTH 17 0
BBX 15 9 0 0
BITMAP
373C
3FFE
71C6
6186
6186
6186
630C
C30C
C30C
ENDCHAR
STARTCHAR n
ENCODING 110
SWIDTH 711 0
DWIDTH 11 0
BBX 10 9 0 0
BITMAP
6780
7FC0
70C0
60C0
E0C0
C0C0
C180
C180
C180
ENDCHAR
STARTCHAR o
ENCODING 111
SWIDTH 687 0
DWIDTH 10 0
BBX 9 9 0 0
BITMAP
1E00
3F00
6180
C180
C180
C180
C300
7E00
3C00
ENDCHAR
STARTCHAR p
ENCODING 112
SWIDTH 715 0
DWIDTH 11 0
BBX 11 12 -1 -3
BITMAP
37C0
3FE0
3860
7060
6060
6060
70C0
7F80
6F00
C000
C000
C000
ENDCHAR
STARTCHAR q
ENCODING 113
SWIDTH 715 0
DWIDTH 11 0
BBX 10 12 0 -3
BITMAP
1EC0
3FC0
61C0
C180
C180
C180
C380
FF80
7980
0300
0300
0300
ENDCHAR
STARTCHAR r
ENCODING 114
SWIDTH 493 0
DWIDTH 8 0
BBX 8 9 0 0
BITMAP
6F
7F
70
60
E0
C0
C0
C0
C0
ENDCHAR
STARTCHAR s
ENCODING 115
SWIDTH 595 0
DWIDTH 10 0
BBX 8 9 0 0
BITMAP
3F
7F
61
78
3E
0F
C3
FF
3E
ENDCHAR
STARTCHAR t
ENCODING 116
SWIDTH 478 0
DWIDTH 8 0
BBX 7 11 1 0
BITMAP
30
60
FE
FE
60
60
C0
C0
C0
F8
78
ENDCHAR
STARTCHAR u
ENCODING 117
SWIDTH 711 0
DWIDTH 11 0
BBX 10 9 0 0
BITMAP
60C0
60C0
60C0
C0C0
C1C0
C180
C180
FF80
7D80
ENDCHAR
STARTCHAR v
ENCODING 118
SWIDTH 651 0
DWIDTH 10 0
BBX 10 9 0 0
BITMAP
C1C0
C180
E380
6300
6600
6600
6C00
7C00
3800
ENDCHAR
STARTCHAR w
ENCODING 119
SWIDTH 923 0
DWIDTH 15 0
BBX 13 9 1 0
BITMAP
C718
C730
CF30
CF60
CB60
DBC0
DBC0
F380
7380
ENDCHAR
STARTCHAR x
ENCODING 120
SWIDTH 645 0
DWIDTH 10 0
BBX 11 9 -1 0
BITMAP
38E0
19C0
1F80
0F00
0F00
1F00
3B80
7180
E1C0
ENDCHAR
STARTCHAR y
ENCODING 121
SWIDTH 651 0
DWIDTH 10 0
BBX 11 12 -1 -3
BITMAP
60E0
60C0
3180
3180
3300
3700
1E00
1C00
1C00
1800
F800
F000
ENDCHAR
STARTCHAR z
ENCODING 122
SWIDTH 582 0
DWIDTH 9 0
BBX 10 9 -1 0
BITMAP
3FC0
3FC0
0380
0700
1E00
3800
7000
FF00
FF00
ENDCHAR
STARTCHAR braceleft
ENCODING 123
SWIDTH 711 0
DWIDTH 11 0
BBX 8 15 2 -3
BITMAP
0F
1F
18
18
18
38
30
F0
F0
70
60
60
60
7C
3C
ENDCHAR
STARTCHAR bar
ENCODING 124
SWIDTH 365 0
DWIDTH 6 0
BBX 2 16 2 -4
BITMAP
C0
C0
C0
C0
C0
C0
C0
C0
C0
C0
C0
C0
C0
C0
C0
C0
ENDCHAR
STARTCHAR braceright
ENCODING 125
SWIDTH 711 0
DWIDTH 11 0
BBX 9 15 1 -3
BITMAP
3C00
3E00
0600
0600
0600
0C00
0E00
0F80
0F00
0C00
1800
1800
1800
F800
F000
ENDCHAR
STARTCHAR asciitilde
ENCODING 126
SWIDTH 837 0
DWIDTH 13 0
BBX 10 3 2 3
BITMAP
7840
FFC0
8780
ENDCHAR
STARTCHAR nonbreakingspace
ENCODING 160
SWIDTH 695 0
DWIDTH 11 0
BBX 1 1 0 0
BITMAP
00
ENDCHAR
STARTCHAR exclamdown
ENCODING 161
SWIDTH 456 0
DWIDTH 7 0
BBX 4 12 1 0
BITMAP
30
30
30
00
20
20
60
60
60
60
C0
C0
ENDCHAR
STARTCHAR cent
ENCODING 162
SWIDTH 695 0
DWIDTH 11 0
BBX 8 13 1 -2
BITMAP
04
0C
1E
7F
6A
C8
D8
D0
F4
FC
78
30
20
ENDCHAR
STARTCHAR sterling
ENCODING 163
SWIDTH 695 0
DWIDTH 11 0
BBX 11 12 0 0
BITMAP
07C0
0FE0
1C40
1800
1800
7F00
7F00
3000
3000
3000
FF80
FF80
ENDCHAR
STARTCHAR currency
ENCODING 164
SWIDTH 636 0
DWIDTH 10 0
BBX 9 9 1 0
BITMAP
4100
FF80
7F00
6300
6300
6300
7F00
FF80
4100
ENDCHAR
STARTCHAR yen
ENCODING 165
SWIDTH 695 0
DWIDTH 11 0
BBX 12 12 0 0
BITMAP
3070
3060
30C0
19C0
1980
7BE0
7FE0
0E00
FFC0
FFC0
1800
1800
ENDCHAR
STARTCHAR brokenbar
ENCODING 166
SWIDTH 365 0
DWIDTH 6 0
BBX 2 14 2 -3
BITMAP
C0
C0
C0
C0
C0
C0
00
00
C0
C0
C0
C0
C0
C0
ENDCHAR
STARTCHAR section
ENCODING 167
SWIDTH 500 0
DWIDTH 8 0
BBX 8 14 0 -2
BITMAP
1F
3F
61
60
3C
7F
C3
C3
FE
7C
06
86
FC
F8
ENDCHAR
STARTCHAR dieresis
ENCODING 168
SWIDTH 500 0
DWIDTH 8 0
BBX 5 2 2 10
BITMAP
D8
D8
ENDCHAR
STARTCHAR copyright
ENCODING 169
SWIDTH 1000 0
DWIDTH 16 0
BBX 12 12 2 0
BITMAP
0F00
30C0
4020
47A0
9C90
9810
9810
9C10
47A0
4020
30C0
0F00
ENDCHAR
STARTCHAR ordfeminine
ENCODING 170
SWIDTH 563 0
DWIDTH 9 0
BBX 7 9 1 3
BITMAP
3C
0E
7E
EE
EE
FC
00
FC
FC
ENDCHAR
STARTCHAR guillemotleft
ENCODING 171
SWIDTH 649 0
DWIDTH 10 0
BBX 9 7 1 1
BITMAP
0880
3B80
7700
CC00
EE00
3300
1100
ENDCHAR
STARTCHAR logicalnot
ENCODING 172
SWIDTH 837 0
DWIDTH 13 0
BBX 10 5 2 2
BITMAP
FFC0
FFC0
00C0
00C0
00C0
ENDCHAR
STARTCHAR sfthyphen
ENCODING 173
SWIDTH 415 0
DWIDTH 7 0
BBX 5 2 0 4
BITMAP
F8
F8
ENDCHAR
STARTCHAR registered
ENCODING 174
SWIDTH 1000 0
DWIDTH 16 0
BBX 12 12 2 0
BITMAP
0F00
30C0
4020
5F20
9990
9990
9F10
9B10
59A0
4020
30C0
0F00
ENDCHAR
STARTCHAR macron
ENCODING 175
SWIDTH 500 0
DWIDTH 8 0
BBX 5 1 2 11
BITMAP
F8
ENDCHAR
STARTCHAR degree
ENCODING 176
SWIDTH 500 0
DWIDTH 8 0
BBX 5 5 1 7
BITMAP
70
88
88
88
70
ENDCHAR
STARTCHAR plusminus
ENCODING 177
SWIDTH 837 0
DWIDTH 13 0
BBX 10 10 2 0
BITMAP
0C00
0C00
0C00
FFC0
FFC0
0C00
0C00
0C00
FFC0
FFC0
ENDCHAR
STARTCHAR twosuperior
ENCODING 178
SWIDTH 437 0
DWIDTH 7 0
BBX 6 7 1 5
BITMAP
78
4C
0C
18
30
60
F8
ENDCHAR
STARTCHAR threesuperior
ENCODING 179
SWIDTH 437 0
DWIDTH 7 0
BBX 6 7 1 5
BITMAP
7C
0C
30
0C
0C
8C
F8
ENDCHAR
STARTCHAR acute
ENCODING 180
SWIDTH 500 0
DWIDTH 8 0
BBX 4 3 4 10
BITMAP
30
60
C0
ENDCHAR
STARTCHAR mu
ENCODING 181
SWIDTH 735 0
DWIDTH 12 0
BBX 11 12 -1 -3
BITMAP
3060
3060
3060
60C0
60C0
60C0
61C0
7FE0
7EE0
C000
C000
C000
ENDCHAR
STARTCHAR paragraph
ENCODING 182
SWIDTH 636 0
DWIDTH 10 0
BBX 9 14 1 -2
BITMAP
3F80
7900
F900
F900
F300
F300
7300
3300
3200
3200
3200
2600
2600
2600
ENDCHAR
STARTCHAR periodcentered
ENCODING 183
SWIDTH 379 0
DWIDTH 6 0
BBX 2 3 1 4
BITMAP
C0
C0
C0
ENDCHAR
STARTCHAR cedilla
ENCODING 184
SWIDTH 500 0
DWIDTH 8 0
BBX 4 3 0 -3
BITMAP
10
10
E0
ENDCHAR
STARTCHAR onesuperior
ENCODING 185
SWIDTH 437 0
DWIDTH 7 0
BBX 6 7 1 5
BITMAP
78
18
30
30
30
30
FC
ENDCHAR
STARTCHAR ordmasculine
ENCODING 186
SWIDTH 563 0
DWIDTH 9 0
BBX 7 9 1 3
BITMAP
3C
6E
EE
EE
EC
78
00
F8
F8
ENDCHAR
STARTCHAR guillemotright
ENCODING 187
SWIDTH 649 0
DWIDTH 10 0
BBX 9 7 1 1
BITMAP
4400
6600
3B80
1980
7700
EE00
8800
ENDCHAR
STARTCHAR onequarter
ENCODING 188
SWIDTH 1064 0
DWIDTH 17 0
BBX 14 12 1 0
BITMAP
7818
1830
3060
3060
30C0
318C
FB1C
022C
065C
0CD8
18FC
3018
ENDCHAR
STARTCHAR onehalf
ENCODING 189
SWIDTH 1064 0
DWIDTH 17 0
BBX 15 12 1 0
BITMAP
7818
1830
3060
3040
30C0
319C
FB26
0606
060C
0C18
1830
307C
ENDCHAR
STARTCHAR threequarters
ENCODING 190
SWIDTH 1064 0
DWIDTH 17 0
BBX 14 12 1 0
BITMAP
7C18
0C30
3020
0C60
0CC0
8D8C
F91C
032C
065C
0CD8
18FC
1818
ENDCHAR
STARTCHAR questiondown
ENCODING 191
SWIDTH 580 0
DWIDTH 9 0
BBX 7 12 0 0
BITMAP
06
06
06
00
06
0C
38
60
C0
C2
FE
7C
ENDCHAR
STARTCHAR Agrave
ENCODING 192
SWIDTH 773 0
DWIDTH 12 0
BBX 12 15 -1 0
BITMAP
0180
0080
0000
03C0
03C0
06C0
0660
0C60
0C60
1860
3860
3FE0
7FF0
6030
E030
ENDCHAR
STARTCHAR Aacute
ENCODING 193
SWIDTH 773 0
DWIDTH 12 0
BBX 12 15 -1 0
BITMAP
0060
00C0
0000
03C0
03C0
06C0
0660
0C60
0C60
1860
3860
3FE0
7FF0
6030
E030
ENDCHAR
STARTCHAR Acircumflex
ENCODING 194
SWIDTH 773 0
DWIDTH 12 0
BBX 12 15 -1 0
BITMAP
01E0
0320
0000
03C0
03C0
06C0
0660
0C60
0C60
1860
3860
3FE0
7FF0
6030
E030
ENDCHAR
STARTCHAR Atilde
ENCODING 195
SWIDTH 773 0
DWIDTH 12 0
BBX 12 16 -1 0
BITMAP
03A0
03E0
02E0
0000
03C0
03C0
06C0
0660
0C60
0C60
1860
3860
3FE0
7FF0
6030
E030
ENDCHAR
STARTCHAR Adieresis
ENCODING 196
SWIDTH 773 0
DWIDTH 12 0
BBX 12 15 -1 0
BITMAP
0240
0240
0000
03C0
03C0
06C0
0660
0C60
0C60
1860
3860
3FE0
7FF0
6030
E030
ENDCHAR
STARTCHAR Aring
ENCODING 197
SWIDTH 773 0
DWIDTH 12 0
BBX 12 15 -1 0
BITMAP
0180
0240
0240
03C0
03C0
06C0
06C0
0CC0
1C60
1860
3860
3FE0
7FE0
6030
E030
ENDCHAR
STARTCHAR AE
ENCODING 198
SWIDTH 1084 0
DWIDTH 17 0
BBX 18 12 -1 0
BITMAP
01FFC0
03FFC0
033000
076000
066000
0C7F80
1C7F80
1FE000
3FE000
30C000
60FF80
E0FF00
ENDCHAR
STARTCHAR Ccedilla
ENCODING 199
SWIDTH 733 0
DWIDTH 12 0
BBX 10 15 0 -3
BITMAP
0F80
3FC0
3080
6000
E000
C000
C000
C000
C000
E100
7F00
3E00
0200
0200
1E00
ENDCHAR
STARTCHAR Egrave
ENCODING 200
SWIDTH 683 0
DWIDTH 11 0
BBX 10 15 0 0
BITMAP
0200
0300
0000
3FC0
3FC0
3000
6000
6000
7F80
7F80
6000
6000
C000
FF00
FF00
ENDCHAR
STARTCHAR Eacute
ENCODING 201
SWIDTH 683 0
DWIDTH 11 0
BBX 10 15 0 0
BITMAP
00C0
0100
0000
3FC0
3FC0
3000
6000
6000
7F80
7F80
6000
6000
C000
FF00
FF00
ENDCHAR
STARTCHAR Ecircumflex
ENCODING 202
SWIDTH 683 0
DWIDTH 11 0
BBX 10 15 0 0
BITMAP
0380
04C0
0000
3FC0
3FC0
3000
6000
6000
7F80
7F80
6000
6000
C000
FF00
FF00
ENDCHAR
STARTCHAR Edieresis
ENCODING 203
SWIDTH 683 0
DWIDTH 11 0
BBX 10 15 0 0
BITMAP
0D80
0D80
0000
3FC0
3FC0
3000
6000
6000
7F80
7F80
6000
6000
C000
FF00
FF00
ENDCHAR
STARTCHAR Igrave
ENCODING 204
SWIDTH 372 0
DWIDTH 6 0
BBX 5 15 0 0
BITMAP
18
08
00
30
30
30
60
60
60
60
60
60
C0
C0
C0
ENDCHAR
STARTCHAR Iacute
ENCODING 205
SWIDTH 372 0
DWIDTH 6 0
BBX 7 15 0 0
BITMAP
06
0C
00
30
30
30
60
60
60
60
60
60
C0
C0
C0
ENDCHAR
STARTCHAR Icircumflex
ENCODING 206
SWIDTH 372 0
DWIDTH 6 0
BBX 7 15 0 0
BITMAP
1E
32
00
30
30
30
60
60
60
60
60
60
C0
C0
C0
ENDCHAR
STARTCHAR Idieresis
ENCODING 207
SWIDTH 372 0
DWIDTH 6 0
BBX 6 15 0 0
BITMAP
24
24
00
30
30
30
60
60
60
60
60
60
C0
C0
C0
ENDCHAR
STARTCHAR Eth
ENCODING 208
SWIDTH 845 0
DWIDTH 14 0
BBX 12 12 0 0
BITMAP
3FC0
3FE0
3070
6030
6030
FE30
FC30
6070
6060
C1C0
FF80
FF00
ENDCHAR
STARTCHAR Ntilde
ENCODING 209
SWIDTH 836 0
DWIDTH 13 0
BBX 13 16 0 0
BITMAP
0320
07E0
04C0
0000
3C18
3E18
3618
6630
6730
6330
63B0
63B0
61B0
C1E0
C1E0
C0E0
ENDCHAR
STARTCHAR Ograve
ENCODING 210
SWIDTH 850 0
DWIDTH 14 0
BBX 12 15 1 0
BITMAP
0300
0100
0000
0F80
1FE0
3870
6030
E030
C030
C030
C070
C060
E1C0
7F80
1F00
ENDCHAR
STARTCHAR Oacute
ENCODING 211
SWIDTH 850 0
DWIDTH 14 0
BBX 12 15 1 0
BITMAP
00C0
0180
0000
0F80
1FE0
3870
6030
E030
C030
C030
C070
C060
E1C0
7F80
1F00
ENDCHAR
STARTCHAR Ocircumflex
ENCODING 212
SWIDTH 850 0
DWIDTH 14 0
BBX 12 15 1 0
BITMAP
03C0
0640
0000
0F80
1FE0
3870
6030
E030
C030
C030
C070
C060
E1C0
7F80
1F00
ENDCHAR
STARTCHAR Otilde
ENCODING 213
SWIDTH 850 0
DWIDTH 14 0
BBX 12 16 1 0
BITMAP
0740
07C0
05C0
0000
0F80
1FE0
3870
6030
E030
C030
C030
C070
C060
E1C0
7F80
1F00
ENDCHAR
STARTCHAR Odieresis
ENCODING 214
SWIDTH 850 0
DWIDTH 14 0
BBX 12 15 1 0
BITMAP
0480
0480
0000
0F80
1FE0
3870
6030
E030
C030
C030
C070
C060
E1C0
7F80
1F00
ENDCHAR
STARTCHAR multiply
ENCODING 215
SWIDTH 837 0
DWIDTH 13 0
BBX 9 9 2 1
BITMAP
4100
E380
7700
3E00
1C00
3E00
7700
E380
4100
ENDCHAR
STARTCHAR Oslash
ENCODING 216
SWIDTH 850 0
DWIDTH 14 0
BBX 14 12 -1 0
BITMAP
07E4
0FF8
1C38
3078
30D8
6398
6618
7C30
7030
70E0
7FC0
DF80
ENDCHAR
STARTCHAR Ugrave
ENCODING 217
SWIDTH 812 0
DWIDTH 13 0
BBX 11 15 1 0
BITMAP
0600
0300
0000
6060
6060
6060
6060
6060
E060
C0C0
C0C0
C0C0
E180
FF80
3E00
ENDCHAR
STARTCHAR Uacute
ENCODING 218
SWIDTH 812 0
DWIDTH 13 0
BBX 11 15 1 0
BITMAP
0180
0300
0000
6060
6060
6060
6060
6060
E060
C0C0
C0C0
C0C0
E180
FF80
3E00
ENDCHAR
STARTCHAR Ucircumflex
ENCODING 219
SWIDTH 812 0
DWIDTH 13 0
BBX 11 15 1 0
BITMAP
0780
0CC0
0000
6060
6060
6060
6060
6060
E060
C0C0
C0C0
C0C0
E180
FF80
3E00
ENDCHAR
STARTCHAR Udieresis
ENCODING 220
SWIDTH 812 0
DWIDTH 13 0
BBX 11 15 1 0
BITMAP
0D80
0D80
0000
6060
6060
6060
6060
6060
E060
C0C0
C0C0
C0C0
E180
FF80
3E00
ENDCHAR
STARTCHAR Yacute
ENCODING 221
SWIDTH 724 0
DWIDTH 12 0
BBX 11 15 1 0
BITMAP
0180
0200
0000
C060
60C0
61C0
7380
3700
3600
1C00
1C00
1800
3800
3000
3000
ENDCHAR
STARTCHAR Thorn
ENCODING 222
SWIDTH 742 0
DWIDTH 12 0
BBX 11 12 0 0
BITMAP
3000
3000
3FC0
7FE0
6060
6060
6060
60E0
7FC0
FF80
C000
C000
ENDCHAR
STARTCHAR germandbls
ENCODING 223
SWIDTH 719 0
DWIDTH 12 0
BBX 10 12 0 0
BITMAP
0F80
1FC0
30C0
31C0
3300
6600
6700
6380
61C0
60C0
CFC0
CF00
ENDCHAR
STARTCHAR agrave
ENCODING 224
SWIDTH 674 0
DWIDTH 11 0
BBX 10 13 0 0
BITMAP
0C00
0600
0600
0000
3F80
3FC0
00C0
3FC0
7FC0
C180
C380
FF80
7980
ENDCHAR
STARTCHAR aacute
ENCODING 225
SWIDTH 674 0
DWIDTH 11 0
BBX 10 13 0 0
BITMAP
00C0
0180
0300
0000
3F80
3FC0
00C0
3FC0
7FC0
C180
C380
FF80
7980
ENDCHAR
STARTCHAR acircumflex
ENCODING 226
SWIDTH 674 0
DWIDTH 11 0
BBX 10 13 0 0
BITMAP
0300
0780
0880
0000
3F80
3FC0
00C0
3FC0
7FC0
C180
C380
FF80
7980
ENDCHAR
STARTCHAR atilde
ENCODING 227
SWIDTH 674 0
DWIDTH 11 0
BBX 10 13 0 0
BITMAP
0E80
0F80
1B00
0000
3F80
3FC0
00C0
3FC0
7FC0
C180
C380
FF80
7980
ENDCHAR
STARTCHAR adieresis
ENCODING 228
SWIDTH 674 0
DWIDTH 11 0
BBX 10 12 0 0
BITMAP
0900
1B00
0000
3F80
3FC0
00C0
3FC0
7FC0
C180
C380
FF80
7980
ENDCHAR
STARTCHAR aring
ENCODING 229
SWIDTH 674 0
DWIDTH 11 0
BBX 10 14 0 0
BITMAP
0700
0D00
0D00
0700
0000
3F80
3FC0
00C0
3FC0
7FC0
C180
C380
FF80
7980
ENDCHAR
STARTCHAR ae
ENCODING 230
SWIDTH 1047 0
DWIDTH 17 0
BBX 16 9 0 0
BITMAP
7F3C
7FFE
01C3
3FFF
7FFF
C380
C782
FFFE
78FC
ENDCHAR
STARTCHAR ccedilla
ENCODING 231
SWIDTH 592 0
DWIDTH 9 0
BBX 9 12 0 -3
BITMAP
1F00
3F80
7080
C000
C000
C000
E200
7E00
3C00
0400
0400
3800
ENDCHAR
STARTCHAR egrave
ENCODING 232
SWIDTH 678 0
DWIDTH 11 0
BBX 10 13 0 0
BITMAP
0C00
0600
0200
0000
1F00
3FC0
60C0
FFC0
FFC0
C000
E080
7F80
3F00
ENDCHAR
STARTCHAR eacute
ENCODING 233
SWIDTH 678 0
DWIDTH 11 0
BBX 10 13 0 0
BITMAP
00C0
0180
0300
0000
1F00
3FC0
60C0
FFC0
FFC0
C000
E080
7F80
3F00
ENDCHAR
STARTCHAR ecircumflex
ENCODING 234
SWIDTH 678 0
DWIDTH 11 0
BBX 10 13 0 0
BITMAP
0380
0780
0CC0
0000
1F00
3FC0
60C0
FFC0
FFC0
C000
E080
7F80
3F00
ENDCHAR
STARTCHAR edieresis
ENCODING 235
SWIDTH 678 0
DWIDTH 11 0
BBX 10 12 0 0
BITMAP
0D80
0D80
0000
1F00
3FC0
60C0
FFC0
FFC0
C000
E080
7F80
3F00
ENDCHAR
STARTCHAR igrave
ENCODING 236
SWIDTH 342 0
DWIDTH 5 0
BBX 5 13 0 0
BITMAP
60
30
18
00
60
60
60
60
E0
C0
C0
C0
C0
ENDCHAR
STARTCHAR iacute
ENCODING 237
SWIDTH 342 0
DWIDTH 5 0
BBX 7 13 0 0
BITMAP
06
0C
18
00
60
60
60
60
E0
C0
C0
C0
C0
ENDCHAR
STARTCHAR icircumflex
ENCODING 238
SWIDTH 342 0
DWIDTH 5 0
BBX 7 13 0 0
BITMAP
1C
3C
66
00
60
60
60
60
E0
C0
C0
C0
C0
ENDCHAR
STARTCHAR idieresis
ENCODING 239
SWIDTH 342 0
DWIDTH 5 0
BBX 6 12 0 0
BITMAP
6C
6C
00
60
60
60
60
E0
C0
C0
C0
C0
ENDCHAR
STARTCHAR eth
ENCODING 240
SWIDTH 687 0
DWIDTH 11 0
BBX 10 12 0 0
BITMAP
0740
0780
7F80
0180
1FC0
7FC0
60C0
C0C0
C0C0
C380
7F00
3E00
ENDCHAR
STARTCHAR ntilde
ENCODING 241
SWIDTH 711 0
DWIDTH 11 0
BBX 10 13 0 0
BITMAP
06C0
0F80
0980
0000
6780
7FC0
70C0
60C0
E0C0
C0C0
C180
C180
C180
ENDCHAR
STARTCHAR ograve
ENCODING 242
SWIDTH 687 0
DWIDTH 10 0
BBX 9 13 0 0
BITMAP
0C00
0600
0200
0000
1E00
3F00
6180
C180
C180
C180
C300
7E00
3C00
ENDCHAR
STARTCHAR oacute
ENCODING 243
SWIDTH 687 0
DWIDTH 10 0
BBX 10 13 0 0
BITMAP
00C0
0180
0300
0000
1E00
3F00
6180
C180
C180
C180
C300
7E00
3C00
ENDCHAR
STARTCHAR ocircumflex
ENCODING 244
SWIDTH 687 0
DWIDTH 10 0
BBX 9 13 0 0
BITMAP
0300
0780
0C80
0000
1E00
3F00
6180
C180
C180
C180
C300
7E00
3C00
ENDCHAR
STARTCHAR otilde
ENCODING 245
SWIDTH 687 0
DWIDTH 10 0
BBX 9 13 0 0
BITMAP
0E80
0F80
0B80
0000
1E00
3F00
6180
C180
C180
C180
C300
7E00
3C00
ENDCHAR
STARTCHAR odieresis
ENCODING 246
SWIDTH 687 0
DWIDTH 10 0
BBX 9 12 0 0
BITMAP
0900
0900
0000
1E00
3F00
6180
C180
C180
C180
C300
7E00
3C00
ENDCHAR
STARTCHAR divide
ENCODING 247
SWIDTH 837 0
DWIDTH 13 0
BBX 10 8 2 1
BITMAP
0C00
0C00
0000
FFC0
FFC0
0000
0C00
0C00
ENDCHAR
STARTCHAR oslash
ENCODING 248
SWIDTH 687 0
DWIDTH 11 0
BBX 11 9 0 0
BITMAP
1FE0
3FC0
71C0
E7C0
CCC0
F1C0
E380
FF00
FE00
ENDCHAR
STARTCHAR ugrave
ENCODING 249
SWIDTH 711 0
DWIDTH 11 0
BBX 10 13 0 0
BITMAP
0C00
0600
0200
0000
60C0
60C0
60C0
C0C0
C1C0
C180
C180
FF80
7D80
ENDCHAR
STARTCHAR uacute
ENCODING 250
SWIDTH 711 0
DWIDTH 11 0
BBX 10 13 0 0
BITMAP
00C0
0180
0300
0000
60C0
60C0
60C0
C0C0
C1C0
C180
C180
FF80
7D80
ENDCHAR
STARTCHAR ucircumflex
ENCODING 251
SWIDTH 711 0
DWIDTH 11 0
BBX 10 13 0 0
BITMAP
0380
0780
0C80
0000
60C0
60C0
60C0
C0C0
C1C0
C180
C180
FF80
7D80
ENDCHAR
STARTCHAR udieresis
ENCODING 252
SWIDTH 711 0
DWIDTH 11 0
BBX 10 12 0 0
BITMAP
0D80
0900
0000
60C0
60C0
60C0
C0C0
C1C0
C180
C180
FF80
7D80
ENDCHAR
STARTCHAR yacute
ENCODING 253
SWIDTH 651 0
DWIDTH 10 0
BBX 11 16 -1 -3
BITMAP
00E0
00C0
0100
0000
60E0
60C0
3180
3180
3300
3700
1E00
1C00
1C00
1800
F800
F000
ENDCHAR
STARTCHAR thorn
ENCODING 254
SWIDTH 715 0
DWIDTH 11 0
BBX 11 15 -1 -3
BITMAP
1800
1800
3800
37C0
3FE0
3860
3060
7060
6060
70C0
7F80
6F00
E000
C000
C000
ENDCHAR
STARTCHAR ydieresis
ENCODING 255
SWIDTH 651 0
DWIDTH 10 0
BBX 11 15 -1 -3
BITMAP
0D80
0D80
0000
60E0
60C0
3180
3180
3300
3700
1E00
1C00
1C00
1800
F800
F000
ENDCHAR
STARTCHAR Cacute
ENCODING 262
SWIDTH 733 0
DWIDTH 12 0
BBX 11 15 0 0
BITMAP
0060
00C0
0000
0F80
3FC0
3080
6000
E000
C000
C000
C000
C000
E100
7F00
3E00
ENDCHAR
STARTCHAR cacute
ENCODING 263
SWIDTH 592 0
DWIDTH 9 0
BBX 10 13 0 0
BITMAP
00C0
0180
0300
0000
1F00
3F80
7080
C000
C000
C000
E200
7E00
3C00
ENDCHAR
STARTCHAR Ccaron
ENCODING 268
SWIDTH 733 0
DWIDTH 12 0
BBX 11 15 0 0
BITMAP
0360
03C0
0000
0F80
3FC0
3080
6000
E000
C000
C000
C000
C000
E100
7F00
3E00
ENDCHAR
STARTCHAR ccaron
ENCODING 269
SWIDTH 592 0
DWIDTH 9 0
BBX 9 13 0 0
BITMAP
0880
0D00
0700
0000
1F00
3F80
7080
C000
C000
C000
E200
7E00
3C00
ENDCHAR
STARTCHAR dcroat
ENCODING 273
SWIDTH 715 0
DWIDTH 11 0
BBX 12 12 0 0
BITMAP
0060
0FF0
0060
1EC0
3FC0
61C0
C0C0
C0C0
C1C0
C380
FF80
7980
ENDCHAR
STARTCHAR Gbreve
ENCODING 286
SWIDTH 820 0
DWIDTH 13 0
BBX 12 15 0 0
BITMAP
0220
01C0
0000
07E0
1FF0
3830
6000
6000
C000
C3F0
C3F0
C060
E060
7FE0
1F80
ENDCHAR
STARTCHAR gbreve
ENCODING 287
SWIDTH 715 0
DWIDTH 11 0
BBX 10 16 0 -3
BITMAP
04C0
0780
0000
0000
1EC0
7FC0
6180
C180
C180
C380
C780
FF00
7B00
8700
FE00
7C00
ENDCHAR
STARTCHAR Idotaccent
ENCODING 304
SWIDTH 372 0
DWIDTH 6 0
BBX 6 15 0 0
BITMAP
0C
0C
00
30
30
30
60
60
60
60
60
60
C0
C0
C0
ENDCHAR
STARTCHAR dotlessi
ENCODING 305
SWIDTH 342 0
DWIDTH 5 0
BBX 3 9 0 0
BITMAP
60
60
60
60
E0
C0
C0
C0
C0
ENDCHAR
STARTCHAR Lslash
ENCODING 321
SWIDTH 660 0
DWIDTH 11 0
BBX 9 12 0 0
BITMAP
1800
1800
1800
3100
3780
3E00
7800
F000
B000
6000
7F80
7F80
ENDCHAR
STARTCHAR lslash
ENCODING 322
SWIDTH 375 0
DWIDTH 6 0
BBX 7 12 0 0
BITMAP
18
18
18
30
3E
3C
F0
70
30
60
60
60
ENDCHAR
STARTCHAR OE
ENCODING 338
SWIDTH 1166 0
DWIDTH 18 0
BBX 17 12 0 0
BITMAP
0FFF80
1FFF00
38C000
60C000
E0C000
C1FE00
C1FE00
C18000
C18000
E18000
7FFE00
3FFE00
ENDCHAR
STARTCHAR oe
ENCODING 339
SWIDTH 1094 0
DWIDTH 18 0
BBX 16 9 0 0
BITMAP
1F3E
3FFF
61E3
C1FF
C1FF
C1C0
C3C2
7FFE
3E7C
ENDCHAR
STARTCHAR Scedilla
ENCODING 350
SWIDTH 720 0
DWIDTH 12 0
BBX 10 15 1 -3
BITMAP
1F80
3FC0
6080
6000
6000
7E00
3F80
0380
0180
4380
FF00
FE00
0800
0800
7000
ENDCHAR
STARTCHAR scedilla
ENCODING 351
SWIDTH 595 0
DWIDTH 10 0
BBX 8 12 0 -3
BITMAP
3F
7F
61
78
3E
0F
C3
FF
3E
08
08
70
ENDCHAR
STARTCHAR Scaron
ENCODING 352
SWIDTH 720 0
DWIDTH 12 0
BBX 10 15 1 0
BITMAP
1980
0F00
0000
1F80
3FC0
6080
6000
6000
7E00
3F80
0380
0180
4380
FF00
FE00
ENDCHAR
STARTCHAR scaron
ENCODING 353
SWIDTH 595 0
DWIDTH 10 0
BBX 8 13 0 0
BITMAP
11
1A
0E
00
3F
7F
61
78
3E
0F
C3
FF
3E
ENDCHAR
STARTCHAR Ydieresis
ENCODING 376
SWIDTH 724 0
DWIDTH 12 0
BBX 11 15 1 0
BITMAP
1B00
1B00
0000
C060
60C0
61C0
7380
3700
3600
1C00
1C00
1800
3800
3000
3000
ENDCHAR
STARTCHAR Zcaron
ENCODING 381
SWIDTH 725 0
DWIDTH 12 0
BBX 12 15 0 0
BITMAP
04C0
0780
0000
3FF0
3FF0
00E0
01C0
0380
0700
0E00
1C00
3800
7000
FFC0
FFC0
ENDCHAR
STARTCHAR zcaron
ENCODING 382
SWIDTH 582 0
DWIDTH 9 0
BBX 10 13 -1 0
BITMAP
0880
0D00
0700
0000
3FC0
3FC0
0380
0700
1E00
3800
7000
FF00
FF00
ENDCHAR
STARTCHAR florin
ENCODING 402
SWIDTH 695 0
DWIDTH 11 0
BBX 11 15 0 -3
BITMAP
01E0
03E0
0300
0300
0600
3FC0
3FC0
0600
0600
0C00
0C00
0C00
1C00
F800
F000
ENDCHAR
STARTCHAR circumflex
ENCODING 710
SWIDTH 500 0
DWIDTH 8 0
BBX 6 3 2 10
BITMAP
38
68
CC
ENDCHAR
STARTCHAR caron
ENCODING 711
SWIDTH 500 0
DWIDTH 8 0
BBX 6 3 2 10
BITMAP
CC
58
70
ENDCHAR
STARTCHAR breve
ENCODING 728
SWIDTH 500 0
DWIDTH 8 0
BBX 5 2 3 11
BITMAP
88
F0
ENDCHAR
STARTCHAR dotaccent
ENCODING 729
SWIDTH 500 0
DWIDTH 8 0
BBX 2 2 4 10
BITMAP
C0
C0
ENDCHAR
STARTCHAR ring
ENCODING 730
SWIDTH 500 0
DWIDTH 8 0
BBX 4 4 3 10
BITMAP
60
90
90
60
ENDCHAR
STARTCHAR ogonek
ENCODING 731
SWIDTH 500 0
DWIDTH 8 0
BBX 3 3 1 -3
BITMAP
40
80
E0
ENDCHAR
STARTCHAR tilde
ENCODING 732
SWIDTH 500 0
DWIDTH 8 0
BBX 6 3 2 10
BITMAP
64
FC
98
ENDCHAR
STARTCHAR hungarumlaut
ENCODING 733
SWIDTH 500 0
DWIDTH 8 0
BBX 7 3 2 10
BITMAP
36
6C
D8
ENDCHAR
STARTCHAR Omega
ENCODING 937
SWIDTH 769 0
DWIDTH 12 0
BBX 11 12 1 0
BITMAP
1F00
3F80
71C0
E0E0
C060
C060
C060
C060
60C0
71C0
F1E0
F1E0
ENDCHAR
STARTCHAR pi
ENCODING 960
SWIDTH 644 0
DWIDTH 10 0
BBX 11 9 0 0
BITMAP
7FE0
FFE0
D980
3980
3B80
3380
3300
3300
7300
ENDCHAR
STARTCHAR endash
ENCODING 8211
SWIDTH 500 0
DWIDTH 8 0
BBX 8 2 0 4
BITMAP
FF
FF
ENDCHAR
STARTCHAR emdash
ENCODING 8212
SWIDTH 1000 0
DWIDTH 16 0
BBX 16 2 0 4
BITMAP
FFFF
FFFF
ENDCHAR
STARTCHAR quoteleft
ENCODING 8216
SWIDTH 379 0
DWIDTH 6 0
BBX 3 5 2 7
BITMAP
60
40
C0
C0
C0
ENDCHAR
STARTCHAR quoteright
ENCODING 8217
SWIDTH 379 0
DWIDTH 6 0
BBX 3 5 2 7
BITMAP
60
60
60
40
C0
ENDCHAR
STARTCHAR quotesinglbase
ENCODING 8218
SWIDTH 379 0
DWIDTH 6 0
BBX 3 5 0 -2
BITMAP
60
60
60
40
C0
ENDCHAR
STARTCHAR quotedblleft
ENCODING 8220
SWIDTH 644 0
DWIDTH 10 0
BBX 7 5 2 7
BITMAP
66
44
CC
CC
CC
ENDCHAR
STARTCHAR quotedblright
ENCODING 8221
SWIDTH 644 0
DWIDTH 10 0
BBX 7 5 2 7
BITMAP
66
66
66
44
CC
ENDCHAR
STARTCHAR quotedblbase
ENCODING 8222
SWIDTH 644 0
DWIDTH 10 0
BBX 7 5 0 -2
BITMAP
66
66
66
44
CC
ENDCHAR
STARTCHAR dagger
ENCODING 8224
SWIDTH 500 0
DWIDTH 8 0
BBX 7 13 1 -1
BITMAP
18
18
30
FE
FE
30
30
60
60
60
60
C0
C0
ENDCHAR
STARTCHAR daggerdbl
ENCODING 8225
SWIDTH 500 0
DWIDTH 8 0
BBX 8 13 0 -1
BITMAP
0C
0C
18
7F
7F
18
18
30
FE
FE
30
60
60
ENDCHAR
STARTCHAR bullet
ENCODING 8226
SWIDTH 639 0
DWIDTH 10 0
BBX 6 6 2 3
BITMAP
78
FC
FC
FC
FC
78
ENDCHAR
STARTCHAR ellipsis
ENCODING 8230
SWIDTH 1000 0
DWIDTH 16 0
BBX 12 3 1 0
BITMAP
C630
C630
C630
ENDCHAR
STARTCHAR perthousand
ENCODING 8240
SWIDTH 1454 0
DWIDTH 23 0
BBX 21 12 1 0
BITMAP
383000
4C2000
CC6000
CCC000
C98000
730000
033870
064C98
0CCD98
18CD98
10C990
3070E0
ENDCHAR
STARTCHAR guilsinglleft
ENCODING 8249
SWIDTH 412 0
DWIDTH 7 0
BBX 5 7 1 1
BITMAP
08
38
70
C0
E0
30
10
ENDCHAR
STARTCHAR guilsinglright
ENCODING 8250
SWIDTH 412 0
DWIDTH 7 0
BBX 5 7 1 1
BITMAP
40
60
38
18
70
E0
80
ENDCHAR
STARTCHAR Euro
ENCODING 8364
SWIDTH 695 0
DWIDTH 11 0
BBX 12 12 -1 0
BITMAP
03E0
0FF0
1C10
1800
7F80
7F00
3000
7E00
FE00
3040
1FC0
0F80
ENDCHAR
STARTCHAR trademark
ENCODING 8482
SWIDTH 1000 0
DWIDTH 16 0
BBX 9 5 3 7
BITMAP
ED80
4D80
4A80
4A80
4880
ENDCHAR
STARTCHAR partialdiff
ENCODING 8706
SWIDTH 543 0
DWIDTH 9 0
BBX 8 11 0 0
BITMAP
3C
32
03
03
3B
67
C7
C7
C6
CC
78
ENDCHAR
STARTCHAR Delta
ENCODING 8710
SWIDTH 696 0
DWIDTH 11 0
BBX 11 12 0 0
BITMAP
0E00
0E00
1F00
1B00
1B00
3B80
3180
3180
71C0
60C0
7FC0
FFE0
ENDCHAR
STARTCHAR product
ENCODING 8719
SWIDTH 787 0
DWIDTH 13 0
BBX 10 15 1 -3
BITMAP
FFC0
FFC0
C0C0
C0C0
C0C0
C0C0
C0C0
C0C0
C0C0
C0C0
C0C0
C0C0
C0C0
C0C0
C0C0
ENDCHAR
STARTCHAR summation
ENCODING 8721
SWIDTH 717 0
DWIDTH 11 0
BBX 10 15 1 -3
BITMAP
FFC0
FFC0
7000
7800
3800
1C00
0E00
0700
0E00
1C00
1800
3800
7000
FFC0
FFC0
ENDCHAR
STARTCHAR minus
ENCODING 8722
SWIDTH 837 0
DWIDTH 13 0
BBX 10 2 2 4
BITMAP
FFC0
FFC0
ENDCHAR
STARTCHAR fraction
ENCODING 8725
SWIDTH 166 0
DWIDTH 3 0
BBX 12 12 -4 0
BITMAP
0030
0060
00C0
0180
0300
0600
0600
0C00
1800
3000
6000
C000
ENDCHAR
STARTCHAR periodcentered
ENCODING 8729
SWIDTH 379 0
DWIDTH 6 0
BBX 2 3 1 4
BITMAP
C0
C0
C0
ENDCHAR
STARTCHAR radical
ENCODING 8730
SWIDTH 666 0
DWIDTH 11 0
BBX 10 13 1 0
BITMAP
00C0
0080
0180
0100
0100
2300
E200
3600
3400
3400
1C00
1800
0800
ENDCHAR
STARTCHAR infinity
ENCODING 8734
SWIDTH 833 0
DWIDTH 13 0
BBX 10 7 2 1
BITMAP
7380
FFC0
8E40
8C40
9C40
FFC0
7380
ENDCHAR
STARTCHAR integral
ENCODING 8747
SWIDTH 609 0
DWIDTH 10 0
BBX 8 15 1 -3
BITMAP
07
0B
0B
18
18
18
18
18
18
18
18
18
D0
D0
E0
ENDCHAR
STARTCHAR approxequal
ENCODING 8776
SWIDTH 837 0
DWIDTH 13 0
BBX 10 6 2 2
BITMAP
7840
FFC0
8780
7840
FFC0
8780
ENDCHAR
STARTCHAR notequal
ENCODING 8800
SWIDTH 837 0
DWIDTH 13 0
BBX 10 10 2 0
BITMAP
0180
0180
FFC0
FFC0
0C00
0C00
FFC0
FFC0
6000
4000
ENDCHAR
STARTCHAR lessequal
ENCODING 8804
SWIDTH 837 0
DWIDTH 13 0
BBX 10 9 2 0
BITMAP
00C0
1FC0
FC00
FC00
1FC0
00C0
0000
FFC0
FFC0
ENDCHAR
STARTCHAR greaterequal
ENCODING 8805
SWIDTH 837 0
DWIDTH 13 0
BBX 10 9 2 0
BITMAP
C000
FC00
1FC0
01C0
1FC0
FC00
C000
FFC0
FFC0
ENDCHAR
STARTCHAR lozenge
ENCODING 9674
SWIDTH 494 0
DWIDTH 8 0
BBX 8 15 0 -3
BITMAP
18
18
24
24
66
42
C3
81
C3
42
66
24
24
18
18
ENDCHAR
STARTCHAR fi
ENCODING 64257
SWIDTH 787 0
DWIDTH 13 0
BBX 11 12 1 0
BITMAP
1E60
7E60
6000
FCC0
FCC0
60C0
60C0
61C0
C180
C180
C180
C180
ENDCHAR
STARTCHAR fl
ENCODING 64258
SWIDTH 787 0
DWIDTH 13 0
BBX 11 12 1 0
BITMAP
1FE0
3FE0
6060
FCC0
FCC0
60C0
60C0
60C0
C0C0
C180
C180
C180
ENDCHAR
STARTCHAR .notdef
ENCODING -1
SWIDTH 600 0
DWIDTH 10 0
BBX 8 14 1 -3
BITMAP
FF
81
81
81
81
81
81
81
81
81
81
81
81
FF
ENDCHAR
STARTCHAR .null
ENCODING -1
SWIDTH 0 0
DWIDTH 0 0
BBX 1 1 0 0
BITMAP
00
ENDCHAR
STARTCHAR nonmarkingreturn
ENCODING -1
SWIDTH 348 0
DWIDTH 6 0
BBX 1 1 0 0
BITMAP
00
ENDCHAR
STARTCHAR c6459
ENCODING -1
SWIDTH 500 0
DWIDTH 8 0
BBX 5 2 2 10
BITMAP
D8
D8
ENDCHAR
STARTCHAR c6460
ENCODING -1
SWIDTH 500 0
DWIDTH 8 0
BBX 3 2 4 10
BITMAP
60
C0
ENDCHAR
STARTCHAR c6461
ENCODING -1
SWIDTH 500 0
DWIDTH 8 0
BBX 6 3 2 10
BITMAP
64
FC
98
ENDCHAR
STARTCHAR c6462
ENCODING -1
SWIDTH 500 0
DWIDTH 8 0
BBX 3 2 3 10
BITMAP
C0
60
ENDCHAR
STARTCHAR c6463
ENCODING -1
SWIDTH 500 0
DWIDTH 8 0
BBX 6 2 2 10
BITMAP
78
CC
ENDCHAR
STARTCHAR c6466
ENCODING -1
SWIDTH 500 0
DWIDTH 8 0
BBX 6 2 2 10
BITMAP
CC
78
ENDCHAR
STARTCHAR c6467
ENCODING -1
SWIDTH 500 0
DWIDTH 8 0
BBX 5 2 3 10
BITMAP
88
70
ENDCHAR
STARTCHAR c6468
ENCODING -1
SWIDTH 500 0
DWIDTH 8 0
BBX 2 2 4 10
BITMAP
C0
C0
ENDCHAR
ENDFONT
